<svg xmlns="http://www.w3.org/2000/svg" version="1.1" xmlns:xlink="http://www.w3.org/1999/xlink" xmlns:svgjs="http://svgjs.dev/svgjs" width="1440" height="560" preserveAspectRatio="none" viewBox="0 0 1440 560"><g mask="url(&quot;#SvgjsMask1000&quot;)" fill="none"><rect width="1440" height="560" x="0" y="0" fill="#0e2a47"></rect><path d="M-101.99 377.42L-101.99 377.42" stroke="#132e65" stroke-width="1.5"></path><path d="M-101.99 377.42L38.61 382.64" stroke="#132e65" stroke-width="1.5"></path><path d="M-101.99 377.42L-80.1 537.02" stroke="#132e65" stroke-width="1.5"></path><path d="M-101.99 377.42L78.85 543.36" stroke="#132e65" stroke-width="1.5"></path><path d="M-101.99 377.42L-104.7 692.26" stroke="#132e65" stroke-width="1.5"></path><path d="M-101.99 377.42L42.6 657.57" stroke="#132e65" stroke-width="1.5"></path><path d="M-80.1 537.02L-80.1 537.02" stroke="#132e65" stroke-width="1.5"></path><path d="M-80.1 537.02L-104.7 692.26" stroke="#132e65" stroke-width="1.5"></path><path d="M-80.1 537.02L78.85 543.36" stroke="#132e65" stroke-width="1.5"></path><path d="M-104.7 692.26L-104.7 692.26" stroke="#132e65" stroke-width="1.5"></path><path d="M-104.7 692.26L42.6 657.57" stroke="#132e65" stroke-width="1.5"></path><path d="M38.61 382.64L38.61 382.64" stroke="#132e65" stroke-width="1.5"></path><path d="M38.61 382.64L78.85 543.36" stroke="#132e65" stroke-width="1.5"></path><path d="M38.61 382.64L-80.1 537.02" stroke="#132e65" stroke-width="1.5"></path><path d="M38.61 382.64L262.24 351.17" stroke="#132e65" stroke-width="1.5"></path><path d="M78.85 543.36L78.85 543.36" stroke="#132e65" stroke-width="1.5"></path><path d="M78.85 543.36L42.6 657.57" stroke="#132e65" stroke-width="1.5"></path><path d="M42.6 657.57L42.6 657.57" stroke="#132e65" stroke-width="1.5"></path><path d="M262.24 351.17L262.24 351.17" stroke="#132e65" stroke-width="1.5"></path><path d="M262.24 351.17L363.44 384.21" stroke="#132e65" stroke-width="1.5"></path><path d="M262.24 351.17L345.46 518.92" stroke="#132e65" stroke-width="1.5"></path><path d="M262.24 351.17L237.78 554.31" stroke="#132e65" stroke-width="1.5"></path><path d="M237.78 554.31L237.78 554.31" stroke="#132e65" stroke-width="1.5"></path><path d="M237.78 554.31L345.46 518.92" stroke="#132e65" stroke-width="1.5"></path><path d="M237.78 554.31L207.49 688.91" stroke="#132e65" stroke-width="1.5"></path><path d="M207.49 688.91L207.49 688.91" stroke="#132e65" stroke-width="1.5"></path><path d="M207.49 688.91L42.6 657.57" stroke="#132e65" stroke-width="1.5"></path><path d="M207.49 688.91L78.85 543.36" stroke="#132e65" stroke-width="1.5"></path><path d="M207.49 688.91L345.46 518.92" stroke="#132e65" stroke-width="1.5"></path><path d="M207.49 688.91L-104.7 692.26" stroke="#132e65" stroke-width="1.5"></path><path d="M207.49 688.91L-80.1 537.02" stroke="#132e65" stroke-width="1.5"></path><path d="M363.44 384.21L363.44 384.21" stroke="#132e65" stroke-width="1.5"></path><path d="M363.44 384.21L345.46 518.92" stroke="#132e65" stroke-width="1.5"></path><path d="M363.44 384.21L237.78 554.31" stroke="#132e65" stroke-width="1.5"></path><path d="M363.44 384.21L541.31 541.88" stroke="#132e65" stroke-width="1.5"></path><path d="M363.44 384.21L646.1 350.82" stroke="#132e65" stroke-width="1.5"></path><path d="M363.44 384.21L529.2 638.43" stroke="#132e65" stroke-width="1.5"></path><path d="M345.46 518.92L345.46 518.92" stroke="#132e65" stroke-width="1.5"></path><path d="M541.31 541.88L541.31 541.88" stroke="#132e65" stroke-width="1.5"></path><path d="M541.31 541.88L529.2 638.43" stroke="#132e65" stroke-width="1.5"></path><path d="M541.31 541.88L691.12 559.21" stroke="#132e65" stroke-width="1.5"></path><path d="M541.31 541.88L345.46 518.92" stroke="#132e65" stroke-width="1.5"></path><path d="M541.31 541.88L663.98 701" stroke="#132e65" stroke-width="1.5"></path><path d="M541.31 541.88L646.1 350.82" stroke="#132e65" stroke-width="1.5"></path><path d="M529.2 638.43L529.2 638.43" stroke="#132e65" stroke-width="1.5"></path><path d="M529.2 638.43L663.98 701" stroke="#132e65" stroke-width="1.5"></path><path d="M529.2 638.43L691.12 559.21" stroke="#132e65" stroke-width="1.5"></path><path d="M710.91 245.43L710.91 245.43" stroke="#132e65" stroke-width="1.5"></path><path d="M710.91 245.43L814.1 212.67" stroke="#132e65" stroke-width="1.5"></path><path d="M710.91 245.43L646.1 350.82" stroke="#132e65" stroke-width="1.5"></path><path d="M710.91 245.43L804.89 382.77" stroke="#132e65" stroke-width="1.5"></path><path d="M646.1 350.82L646.1 350.82" stroke="#132e65" stroke-width="1.5"></path><path d="M646.1 350.82L804.89 382.77" stroke="#132e65" stroke-width="1.5"></path><path d="M691.12 559.21L691.12 559.21" stroke="#132e65" stroke-width="1.5"></path><path d="M691.12 559.21L824.18 547.34" stroke="#132e65" stroke-width="1.5"></path><path d="M691.12 559.21L802.42 643.85" stroke="#132e65" stroke-width="1.5"></path><path d="M691.12 559.21L663.98 701" stroke="#132e65" stroke-width="1.5"></path><path d="M663.98 701L663.98 701" stroke="#132e65" stroke-width="1.5"></path><path d="M814.1 212.67L814.1 212.67" stroke="#132e65" stroke-width="1.5"></path><path d="M814.1 212.67L804.89 382.77" stroke="#132e65" stroke-width="1.5"></path><path d="M804.89 382.77L804.89 382.77" stroke="#132e65" stroke-width="1.5"></path><path d="M804.89 382.77L956.07 381.3" stroke="#132e65" stroke-width="1.5"></path><path d="M804.89 382.77L824.18 547.34" stroke="#132e65" stroke-width="1.5"></path><path d="M824.18 547.34L824.18 547.34" stroke="#132e65" stroke-width="1.5"></path><path d="M824.18 547.34L802.42 643.85" stroke="#132e65" stroke-width="1.5"></path><path d="M824.18 547.34L1006.35 551.16" stroke="#132e65" stroke-width="1.5"></path><path d="M824.18 547.34L955.73 696.4" stroke="#132e65" stroke-width="1.5"></path><path d="M824.18 547.34L956.07 381.3" stroke="#132e65" stroke-width="1.5"></path><path d="M802.42 643.85L802.42 643.85" stroke="#132e65" stroke-width="1.5"></path><path d="M802.42 643.85L663.98 701" stroke="#132e65" stroke-width="1.5"></path><path d="M802.42 643.85L955.73 696.4" stroke="#132e65" stroke-width="1.5"></path><path d="M802.42 643.85L1006.35 551.16" stroke="#132e65" stroke-width="1.5"></path><path d="M802.42 643.85L804.89 382.77" stroke="#132e65" stroke-width="1.5"></path><path d="M992.24 -109.39L992.24 -109.39" stroke="#132e65" stroke-width="1.5"></path><path d="M992.24 -109.39L1091.5 -112.25" stroke="#132e65" stroke-width="1.5"></path><path d="M992.24 -109.39L1087.76 65.51" stroke="#132e65" stroke-width="1.5"></path><path d="M958.19 102.42L958.19 102.42" stroke="#132e65" stroke-width="1.5"></path><path d="M958.19 102.42L1087.76 65.51" stroke="#132e65" stroke-width="1.5"></path><path d="M958.19 102.42L1000.27 254.38" stroke="#132e65" stroke-width="1.5"></path><path d="M958.19 102.42L814.1 212.67" stroke="#132e65" stroke-width="1.5"></path><path d="M958.19 102.42L992.24 -109.39" stroke="#132e65" stroke-width="1.5"></path><path d="M958.19 102.42L1138.15 243.05" stroke="#132e65" stroke-width="1.5"></path><path d="M1000.27 254.38L1000.27 254.38" stroke="#132e65" stroke-width="1.5"></path><path d="M1000.27 254.38L956.07 381.3" stroke="#132e65" stroke-width="1.5"></path><path d="M1000.27 254.38L1138.15 243.05" stroke="#132e65" stroke-width="1.5"></path><path d="M1000.27 254.38L814.1 212.67" stroke="#132e65" stroke-width="1.5"></path><path d="M956.07 381.3L956.07 381.3" stroke="#132e65" stroke-width="1.5"></path><path d="M956.07 381.3L1006.35 551.16" stroke="#132e65" stroke-width="1.5"></path><path d="M956.07 381.3L814.1 212.67" stroke="#132e65" stroke-width="1.5"></path><path d="M956.07 381.3L1138.15 243.05" stroke="#132e65" stroke-width="1.5"></path><path d="M1006.35 551.16L1006.35 551.16" stroke="#132e65" stroke-width="1.5"></path><path d="M1006.35 551.16L955.73 696.4" stroke="#132e65" stroke-width="1.5"></path><path d="M1006.35 551.16L1160.73 491.52" stroke="#132e65" stroke-width="1.5"></path><path d="M955.73 696.4L955.73 696.4" stroke="#132e65" stroke-width="1.5"></path><path d="M955.73 696.4L1150.34 663.92" stroke="#132e65" stroke-width="1.5"></path><path d="M955.73 696.4L1160.73 491.52" stroke="#132e65" stroke-width="1.5"></path><path d="M955.73 696.4L663.98 701" stroke="#132e65" stroke-width="1.5"></path><path d="M1091.5 -112.25L1091.5 -112.25" stroke="#132e65" stroke-width="1.5"></path><path d="M1091.5 -112.25L1087.76 65.51" stroke="#132e65" stroke-width="1.5"></path><path d="M1091.5 -112.25L1302.71 -106.05" stroke="#132e65" stroke-width="1.5"></path><path d="M1087.76 65.51L1087.76 65.51" stroke="#132e65" stroke-width="1.5"></path><path d="M1087.76 65.51L1138.15 243.05" stroke="#132e65" stroke-width="1.5"></path><path d="M1087.76 65.51L1274.73 73.13" stroke="#132e65" stroke-width="1.5"></path><path d="M1138.15 243.05L1138.15 243.05" stroke="#132e65" stroke-width="1.5"></path><path d="M1138.15 243.05L1302.43 359.33" stroke="#132e65" stroke-width="1.5"></path><path d="M1138.15 243.05L1274.73 73.13" stroke="#132e65" stroke-width="1.5"></path><path d="M1160.73 491.52L1160.73 491.52" stroke="#132e65" stroke-width="1.5"></path><path d="M1160.73 491.52L1310.84 516.82" stroke="#132e65" stroke-width="1.5"></path><path d="M1160.73 491.52L1150.34 663.92" stroke="#132e65" stroke-width="1.5"></path><path d="M1160.73 491.52L1302.43 359.33" stroke="#132e65" stroke-width="1.5"></path><path d="M1160.73 491.52L1288.69 648.58" stroke="#132e65" stroke-width="1.5"></path><path d="M1150.34 663.92L1150.34 663.92" stroke="#132e65" stroke-width="1.5"></path><path d="M1150.34 663.92L1288.69 648.58" stroke="#132e65" stroke-width="1.5"></path><path d="M1150.34 663.92L1006.35 551.16" stroke="#132e65" stroke-width="1.5"></path><path d="M1150.34 663.92L1310.84 516.82" stroke="#132e65" stroke-width="1.5"></path><path d="M1150.34 663.92L1426.54 644.1" stroke="#132e65" stroke-width="1.5"></path><path d="M1302.71 -106.05L1302.71 -106.05" stroke="#132e65" stroke-width="1.5"></path><path d="M1302.71 -106.05L1394.73 -86.02" stroke="#132e65" stroke-width="1.5"></path><path d="M1302.71 -106.05L1274.73 73.13" stroke="#132e65" stroke-width="1.5"></path><path d="M1302.71 -106.05L1399.03 52.26" stroke="#132e65" stroke-width="1.5"></path><path d="M1274.73 73.13L1274.73 73.13" stroke="#132e65" stroke-width="1.5"></path><path d="M1274.73 73.13L1399.03 52.26" stroke="#132e65" stroke-width="1.5"></path><path d="M1274.73 73.13L1394.73 -86.02" stroke="#132e65" stroke-width="1.5"></path><path d="M1274.73 73.13L1442.98 209.72" stroke="#132e65" stroke-width="1.5"></path><path d="M1302.43 359.33L1302.43 359.33" stroke="#132e65" stroke-width="1.5"></path><path d="M1302.43 359.33L1446.98 354.91" stroke="#132e65" stroke-width="1.5"></path><path d="M1302.43 359.33L1310.84 516.82" stroke="#132e65" stroke-width="1.5"></path><path d="M1310.84 516.82L1310.84 516.82" stroke="#132e65" stroke-width="1.5"></path><path d="M1310.84 516.82L1288.69 648.58" stroke="#132e65" stroke-width="1.5"></path><path d="M1310.84 516.82L1457.04 520.95" stroke="#132e65" stroke-width="1.5"></path><path d="M1288.69 648.58L1288.69 648.58" stroke="#132e65" stroke-width="1.5"></path><path d="M1288.69 648.58L1426.54 644.1" stroke="#132e65" stroke-width="1.5"></path><path d="M1394.73 -86.02L1394.73 -86.02" stroke="#132e65" stroke-width="1.5"></path><path d="M1394.73 -86.02L1399.03 52.26" stroke="#132e65" stroke-width="1.5"></path><path d="M1394.73 -86.02L1551.01 -96.92" stroke="#132e65" stroke-width="1.5"></path><path d="M1399.03 52.26L1399.03 52.26" stroke="#132e65" stroke-width="1.5"></path><path d="M1442.98 209.72L1442.98 209.72" stroke="#132e65" stroke-width="1.5"></path><path d="M1442.98 209.72L1446.98 354.91" stroke="#132e65" stroke-width="1.5"></path><path d="M1442.98 209.72L1399.03 52.26" stroke="#132e65" stroke-width="1.5"></path><path d="M1442.98 209.72L1607.35 254.55" stroke="#132e65" stroke-width="1.5"></path><path d="M1442.98 209.72L1582.84 60.17" stroke="#132e65" stroke-width="1.5"></path><path d="M1446.98 354.91L1446.98 354.91" stroke="#132e65" stroke-width="1.5"></path><path d="M1446.98 354.91L1561.68 387.42" stroke="#132e65" stroke-width="1.5"></path><path d="M1446.98 354.91L1457.04 520.95" stroke="#132e65" stroke-width="1.5"></path><path d="M1457.04 520.95L1457.04 520.95" stroke="#132e65" stroke-width="1.5"></path><path d="M1457.04 520.95L1539.35 557.2" stroke="#132e65" stroke-width="1.5"></path><path d="M1457.04 520.95L1426.54 644.1" stroke="#132e65" stroke-width="1.5"></path><path d="M1426.54 644.1L1426.54 644.1" stroke="#132e65" stroke-width="1.5"></path><path d="M1426.54 644.1L1541.26 670.08" stroke="#132e65" stroke-width="1.5"></path><path d="M1551.01 -96.92L1551.01 -96.92" stroke="#132e65" stroke-width="1.5"></path><path d="M1551.01 -96.92L1582.84 60.17" stroke="#132e65" stroke-width="1.5"></path><path d="M1582.84 60.17L1582.84 60.17" stroke="#132e65" stroke-width="1.5"></path><path d="M1582.84 60.17L1399.03 52.26" stroke="#132e65" stroke-width="1.5"></path><path d="M1582.84 60.17L1607.35 254.55" stroke="#132e65" stroke-width="1.5"></path><path d="M1607.35 254.55L1607.35 254.55" stroke="#132e65" stroke-width="1.5"></path><path d="M1607.35 254.55L1561.68 387.42" stroke="#132e65" stroke-width="1.5"></path><path d="M1607.35 254.55L1446.98 354.91" stroke="#132e65" stroke-width="1.5"></path><path d="M1561.68 387.42L1561.68 387.42" stroke="#132e65" stroke-width="1.5"></path><path d="M1561.68 387.42L1457.04 520.95" stroke="#132e65" stroke-width="1.5"></path><path d="M1539.35 557.2L1539.35 557.2" stroke="#132e65" stroke-width="1.5"></path><path d="M1539.35 557.2L1541.26 670.08" stroke="#132e65" stroke-width="1.5"></path><path d="M1539.35 557.2L1426.54 644.1" stroke="#132e65" stroke-width="1.5"></path><path d="M1541.26 670.08L1541.26 670.08" stroke="#132e65" stroke-width="1.5"></path><path d="M1541.26 670.08L1457.04 520.95" stroke="#132e65" stroke-width="1.5"></path><path d="M1541.26 670.08L1288.69 648.58" stroke="#132e65" stroke-width="1.5"></path><path d="M1541.26 670.08L1310.84 516.82" stroke="#132e65" stroke-width="1.5"></path><path d="M1541.26 670.08L1561.68 387.42" stroke="#132e65" stroke-width="1.5"></path><circle r="5" cx="-101.99" cy="377.42" fill="#132e65"></circle><circle r="5" cx="-80.1" cy="537.02" fill="#132e65"></circle><circle r="5" cx="-104.7" cy="692.26" fill="#132e65"></circle><circle r="5" cx="38.61" cy="382.64" fill="#132e65"></circle><circle r="5" cx="78.85" cy="543.36" fill="#132e65"></circle><circle r="5" cx="42.6" cy="657.57" fill="#132e65"></circle><circle r="5" cx="262.24" cy="351.17" fill="#132e65"></circle><circle r="5" cx="237.78" cy="554.31" fill="#132e65"></circle><circle r="5" cx="207.49" cy="688.91" fill="#132e65"></circle><circle r="5" cx="363.44" cy="384.21" fill="#132e65"></circle><circle r="5" cx="345.46" cy="518.92" fill="#132e65"></circle><circle r="5" cx="541.31" cy="541.88" fill="#132e65"></circle><circle r="5" cx="529.2" cy="638.43" fill="#132e65"></circle><circle r="5" cx="710.91" cy="245.43" fill="#132e65"></circle><circle r="5" cx="646.1" cy="350.82" fill="#132e65"></circle><circle r="5" cx="691.12" cy="559.21" fill="#132e65"></circle><circle r="5" cx="663.98" cy="701" fill="#132e65"></circle><circle r="5" cx="814.1" cy="212.67" fill="#132e65"></circle><circle r="5" cx="804.89" cy="382.77" fill="#132e65"></circle><circle r="5" cx="824.18" cy="547.34" fill="#132e65"></circle><circle r="5" cx="802.42" cy="643.85" fill="#132e65"></circle><circle r="5" cx="992.24" cy="-109.39" fill="#132e65"></circle><circle r="5" cx="958.19" cy="102.42" fill="#132e65"></circle><circle r="5" cx="1000.27" cy="254.38" fill="#132e65"></circle><circle r="5" cx="956.07" cy="381.3" fill="#132e65"></circle><circle r="5" cx="1006.35" cy="551.16" fill="#132e65"></circle><circle r="5" cx="955.73" cy="696.4" fill="#132e65"></circle><circle r="5" cx="1091.5" cy="-112.25" fill="#132e65"></circle><circle r="5" cx="1087.76" cy="65.51" fill="#132e65"></circle><circle r="5" cx="1138.15" cy="243.05" fill="#132e65"></circle><circle r="5" cx="1160.73" cy="491.52" fill="#132e65"></circle><circle r="5" cx="1150.34" cy="663.92" fill="#132e65"></circle><circle r="5" cx="1302.71" cy="-106.05" fill="#132e65"></circle><circle r="5" cx="1274.73" cy="73.13" fill="#132e65"></circle><circle r="5" cx="1302.43" cy="359.33" fill="#132e65"></circle><circle r="5" cx="1310.84" cy="516.82" fill="#132e65"></circle><circle r="5" cx="1288.69" cy="648.58" fill="#132e65"></circle><circle r="5" cx="1394.73" cy="-86.02" fill="#132e65"></circle><circle r="5" cx="1399.03" cy="52.26" fill="#132e65"></circle><circle r="5" cx="1442.98" cy="209.72" fill="#132e65"></circle><circle r="5" cx="1446.98" cy="354.91" fill="#132e65"></circle><circle r="5" cx="1457.04" cy="520.95" fill="#132e65"></circle><circle r="5" cx="1426.54" cy="644.1" fill="#132e65"></circle><circle r="5" cx="1551.01" cy="-96.92" fill="#132e65"></circle><circle r="5" cx="1582.84" cy="60.17" fill="#132e65"></circle><circle r="5" cx="1607.35" cy="254.55" fill="#132e65"></circle><circle r="5" cx="1561.68" cy="387.42" fill="#132e65"></circle><circle r="5" cx="1539.35" cy="557.2" fill="#132e65"></circle><circle r="5" cx="1541.26" cy="670.08" fill="#132e65"></circle><path d="M-63.63 518.36L-63.63 518.36" stroke="hsl(228.5, 77.2%, 51.5%)" stroke-width="1.5"></path><path d="M-63.63 518.36L-41.72 647.61" stroke="hsl(228.5, 77.2%, 51.5%)" stroke-width="1.5"></path><path d="M-63.63 518.36L84.71 490.64" stroke="hsl(228.5, 77.2%, 51.5%)" stroke-width="1.5"></path><path d="M-63.63 518.36L65.76 685.25" stroke="hsl(228.5, 77.2%, 51.5%)" stroke-width="1.5"></path><path d="M-63.63 518.36L195.78 527.51" stroke="hsl(228.5, 77.2%, 51.5%)" stroke-width="1.5"></path><path d="M-41.72 647.61L-41.72 647.61" stroke="hsl(228.5, 77.2%, 51.5%)" stroke-width="1.5"></path><path d="M-41.72 647.61L65.76 685.25" stroke="hsl(228.5, 77.2%, 51.5%)" stroke-width="1.5"></path><path d="M-41.72 647.61L84.71 490.64" stroke="hsl(228.5, 77.2%, 51.5%)" stroke-width="1.5"></path><path d="M347.5 531.11L347.5 531.11" stroke="hsl(228.5, 77.2%, 51.5%)" stroke-width="1.5"></path><path d="M347.5 531.11L381.67 672.15" stroke="hsl(228.5, 77.2%, 51.5%)" stroke-width="1.5"></path><path d="M347.5 531.11L195.78 527.51" stroke="hsl(228.5, 77.2%, 51.5%)" stroke-width="1.5"></path><path d="M559.3 703.08L559.3 703.08" stroke="hsl(228.5, 77.2%, 51.5%)" stroke-width="1.5"></path><path d="M559.3 703.08L647.51 694.1" stroke="hsl(228.5, 77.2%, 51.5%)" stroke-width="1.5"></path><path d="M559.3 703.08L381.67 672.15" stroke="hsl(228.5, 77.2%, 51.5%)" stroke-width="1.5"></path><path d="M559.3 703.08L546.79 517.58" stroke="hsl(228.5, 77.2%, 51.5%)" stroke-width="1.5"></path><path d="M559.3 703.08L671.29 512.33" stroke="hsl(228.5, 77.2%, 51.5%)" stroke-width="1.5"></path><path d="M559.3 703.08L347.5 531.11" stroke="hsl(228.5, 77.2%, 51.5%)" stroke-width="1.5"></path><path d="M955.81 399.12L955.81 399.12" stroke="hsl(228.5, 77.2%, 51.5%)" stroke-width="1.5"></path><path d="M955.81 399.12L827.56 400.41" stroke="hsl(228.5, 77.2%, 51.5%)" stroke-width="1.5"></path><path d="M955.81 399.12L1001.34 531.44" stroke="hsl(228.5, 77.2%, 51.5%)" stroke-width="1.5"></path><path d="M955.81 399.12L1008.03 241.59" stroke="hsl(228.5, 77.2%, 51.5%)" stroke-width="1.5"></path><path d="M955.81 399.12L1151.66 392.47" stroke="hsl(228.5, 77.2%, 51.5%)" stroke-width="1.5"></path><path d="M1243.94 -98.43L1243.94 -98.43" stroke="hsl(228.5, 77.2%, 51.5%)" stroke-width="1.5"></path><path d="M1243.94 -98.43L1420.6 -71.45" stroke="hsl(228.5, 77.2%, 51.5%)" stroke-width="1.5"></path><path d="M1243.94 -98.43L1160.87 78.38" stroke="hsl(228.5, 77.2%, 51.5%)" stroke-width="1.5"></path><path d="M1243.94 -98.43L1283.81 109.42" stroke="hsl(228.5, 77.2%, 51.5%)" stroke-width="1.5"></path><path d="M1243.94 -98.43L1436.61 44.42" stroke="hsl(228.5, 77.2%, 51.5%)" stroke-width="1.5"></path><path d="M1243.94 -98.43L1299.06 214.28" stroke="hsl(228.5, 77.2%, 51.5%)" stroke-width="1.5"></path><path d="M1247.6 395.75L1247.6 395.75" stroke="hsl(228.5, 77.2%, 51.5%)" stroke-width="1.5"></path><path d="M1247.6 395.75L1151.66 392.47" stroke="hsl(228.5, 77.2%, 51.5%)" stroke-width="1.5"></path><path d="M1247.6 395.75L1147.8 251.8" stroke="hsl(228.5, 77.2%, 51.5%)" stroke-width="1.5"></path><path d="M1247.6 395.75L1299.06 214.28" stroke="hsl(228.5, 77.2%, 51.5%)" stroke-width="1.5"></path><path d="M1247.6 395.75L1438.86 546.62" stroke="hsl(228.5, 77.2%, 51.5%)" stroke-width="1.5"></path><path d="M1247.6 395.75L1457.28 248.64" stroke="hsl(228.5, 77.2%, 51.5%)" stroke-width="1.5"></path><path d="M1247.6 395.75L1001.34 531.44" stroke="hsl(228.5, 77.2%, 51.5%)" stroke-width="1.5"></path><path d="M84.71 490.64L84.71 490.64" stroke="hsl(228.5, 77.2%, 51.5%)" stroke-width="1.5"></path><path d="M84.71 490.64L195.78 527.51" stroke="hsl(228.5, 77.2%, 51.5%)" stroke-width="1.5"></path><path d="M84.71 490.64L65.76 685.25" stroke="hsl(228.5, 77.2%, 51.5%)" stroke-width="1.5"></path><path d="M65.76 685.25L65.76 685.25" stroke="hsl(228.5, 77.2%, 51.5%)" stroke-width="1.5"></path><path d="M65.76 685.25L249.23 711.21" stroke="hsl(228.5, 77.2%, 51.5%)" stroke-width="1.5"></path><path d="M65.76 685.25L195.78 527.51" stroke="hsl(228.5, 77.2%, 51.5%)" stroke-width="1.5"></path><path d="M195.78 527.51L195.78 527.51" stroke="hsl(228.5, 77.2%, 51.5%)" stroke-width="1.5"></path><path d="M195.78 527.51L249.23 711.21" stroke="hsl(228.5, 77.2%, 51.5%)" stroke-width="1.5"></path><path d="M195.78 527.51L381.67 672.15" stroke="hsl(228.5, 77.2%, 51.5%)" stroke-width="1.5"></path><path d="M249.23 711.21L249.23 711.21" stroke="hsl(228.5, 77.2%, 51.5%)" stroke-width="1.5"></path><path d="M249.23 711.21L381.67 672.15" stroke="hsl(228.5, 77.2%, 51.5%)" stroke-width="1.5"></path><path d="M249.23 711.21L347.5 531.11" stroke="hsl(228.5, 77.2%, 51.5%)" stroke-width="1.5"></path><path d="M381.67 672.15L381.67 672.15" stroke="hsl(228.5, 77.2%, 51.5%)" stroke-width="1.5"></path><path d="M381.67 672.15L546.79 517.58" stroke="hsl(228.5, 77.2%, 51.5%)" stroke-width="1.5"></path><path d="M381.67 672.15L647.51 694.1" stroke="hsl(228.5, 77.2%, 51.5%)" stroke-width="1.5"></path><path d="M546.79 517.58L546.79 517.58" stroke="hsl(228.5, 77.2%, 51.5%)" stroke-width="1.5"></path><path d="M546.79 517.58L671.29 512.33" stroke="hsl(228.5, 77.2%, 51.5%)" stroke-width="1.5"></path><path d="M546.79 517.58L347.5 531.11" stroke="hsl(228.5, 77.2%, 51.5%)" stroke-width="1.5"></path><path d="M546.79 517.58L647.51 694.1" stroke="hsl(228.5, 77.2%, 51.5%)" stroke-width="1.5"></path><path d="M671.29 512.33L671.29 512.33" stroke="hsl(228.5, 77.2%, 51.5%)" stroke-width="1.5"></path><path d="M671.29 512.33L647.51 694.1" stroke="hsl(228.5, 77.2%, 51.5%)" stroke-width="1.5"></path><path d="M671.29 512.33L827.56 400.41" stroke="hsl(228.5, 77.2%, 51.5%)" stroke-width="1.5"></path><path d="M671.29 512.33L849.54 679.85" stroke="hsl(228.5, 77.2%, 51.5%)" stroke-width="1.5"></path><path d="M647.51 694.1L647.51 694.1" stroke="hsl(228.5, 77.2%, 51.5%)" stroke-width="1.5"></path><path d="M647.51 694.1L849.54 679.85" stroke="hsl(228.5, 77.2%, 51.5%)" stroke-width="1.5"></path><path d="M647.51 694.1L347.5 531.11" stroke="hsl(228.5, 77.2%, 51.5%)" stroke-width="1.5"></path><path d="M827.56 400.41L827.56 400.41" stroke="hsl(228.5, 77.2%, 51.5%)" stroke-width="1.5"></path><path d="M827.56 400.41L1001.34 531.44" stroke="hsl(228.5, 77.2%, 51.5%)" stroke-width="1.5"></path><path d="M827.56 400.41L1008.03 241.59" stroke="hsl(228.5, 77.2%, 51.5%)" stroke-width="1.5"></path><path d="M827.56 400.41L849.54 679.85" stroke="hsl(228.5, 77.2%, 51.5%)" stroke-width="1.5"></path><path d="M849.54 679.85L849.54 679.85" stroke="hsl(228.5, 77.2%, 51.5%)" stroke-width="1.5"></path><path d="M849.54 679.85L1004.08 641.52" stroke="hsl(228.5, 77.2%, 51.5%)" stroke-width="1.5"></path><path d="M849.54 679.85L1001.34 531.44" stroke="hsl(228.5, 77.2%, 51.5%)" stroke-width="1.5"></path><path d="M1008.03 241.59L1008.03 241.59" stroke="hsl(228.5, 77.2%, 51.5%)" stroke-width="1.5"></path><path d="M1008.03 241.59L1147.8 251.8" stroke="hsl(228.5, 77.2%, 51.5%)" stroke-width="1.5"></path><path d="M1008.03 241.59L1151.66 392.47" stroke="hsl(228.5, 77.2%, 51.5%)" stroke-width="1.5"></path><path d="M1001.34 531.44L1001.34 531.44" stroke="hsl(228.5, 77.2%, 51.5%)" stroke-width="1.5"></path><path d="M1001.34 531.44L1004.08 641.52" stroke="hsl(228.5, 77.2%, 51.5%)" stroke-width="1.5"></path><path d="M1001.34 531.44L1151.66 392.47" stroke="hsl(228.5, 77.2%, 51.5%)" stroke-width="1.5"></path><path d="M1001.34 531.44L1144.16 687.38" stroke="hsl(228.5, 77.2%, 51.5%)" stroke-width="1.5"></path><path d="M1004.08 641.52L1004.08 641.52" stroke="hsl(228.5, 77.2%, 51.5%)" stroke-width="1.5"></path><path d="M1004.08 641.52L1144.16 687.38" stroke="hsl(228.5, 77.2%, 51.5%)" stroke-width="1.5"></path><path d="M1160.87 78.38L1160.87 78.38" stroke="hsl(228.5, 77.2%, 51.5%)" stroke-width="1.5"></path><path d="M1160.87 78.38L1283.81 109.42" stroke="hsl(228.5, 77.2%, 51.5%)" stroke-width="1.5"></path><path d="M1160.87 78.38L1147.8 251.8" stroke="hsl(228.5, 77.2%, 51.5%)" stroke-width="1.5"></path><path d="M1160.87 78.38L1299.06 214.28" stroke="hsl(228.5, 77.2%, 51.5%)" stroke-width="1.5"></path><path d="M1147.8 251.8L1147.8 251.8" stroke="hsl(228.5, 77.2%, 51.5%)" stroke-width="1.5"></path><path d="M1147.8 251.8L1151.66 392.47" stroke="hsl(228.5, 77.2%, 51.5%)" stroke-width="1.5"></path><path d="M1147.8 251.8L1299.06 214.28" stroke="hsl(228.5, 77.2%, 51.5%)" stroke-width="1.5"></path><path d="M1147.8 251.8L1283.81 109.42" stroke="hsl(228.5, 77.2%, 51.5%)" stroke-width="1.5"></path><path d="M1151.66 392.47L1151.66 392.47" stroke="hsl(228.5, 77.2%, 51.5%)" stroke-width="1.5"></path><path d="M1144.16 687.38L1144.16 687.38" stroke="hsl(228.5, 77.2%, 51.5%)" stroke-width="1.5"></path><path d="M1144.16 687.38L1293.58 702.52" stroke="hsl(228.5, 77.2%, 51.5%)" stroke-width="1.5"></path><path d="M1144.16 687.38L849.54 679.85" stroke="hsl(228.5, 77.2%, 51.5%)" stroke-width="1.5"></path><path d="M1144.16 687.38L1151.66 392.47" stroke="hsl(228.5, 77.2%, 51.5%)" stroke-width="1.5"></path><path d="M1283.81 109.42L1283.81 109.42" stroke="hsl(228.5, 77.2%, 51.5%)" stroke-width="1.5"></path><path d="M1283.81 109.42L1299.06 214.28" stroke="hsl(228.5, 77.2%, 51.5%)" stroke-width="1.5"></path><path d="M1283.81 109.42L1436.61 44.42" stroke="hsl(228.5, 77.2%, 51.5%)" stroke-width="1.5"></path><path d="M1299.06 214.28L1299.06 214.28" stroke="hsl(228.5, 77.2%, 51.5%)" stroke-width="1.5"></path><path d="M1299.06 214.28L1457.28 248.64" stroke="hsl(228.5, 77.2%, 51.5%)" stroke-width="1.5"></path><path d="M1293.58 702.52L1293.58 702.52" stroke="hsl(228.5, 77.2%, 51.5%)" stroke-width="1.5"></path><path d="M1293.58 702.52L1438.55 638.53" stroke="hsl(228.5, 77.2%, 51.5%)" stroke-width="1.5"></path><path d="M1293.58 702.52L1438.86 546.62" stroke="hsl(228.5, 77.2%, 51.5%)" stroke-width="1.5"></path><path d="M1420.6 -71.45L1420.6 -71.45" stroke="hsl(228.5, 77.2%, 51.5%)" stroke-width="1.5"></path><path d="M1420.6 -71.45L1436.61 44.42" stroke="hsl(228.5, 77.2%, 51.5%)" stroke-width="1.5"></path><path d="M1420.6 -71.45L1569.92 -68.61" stroke="hsl(228.5, 77.2%, 51.5%)" stroke-width="1.5"></path><path d="M1420.6 -71.45L1283.81 109.42" stroke="hsl(228.5, 77.2%, 51.5%)" stroke-width="1.5"></path><path d="M1420.6 -71.45L1160.87 78.38" stroke="hsl(228.5, 77.2%, 51.5%)" stroke-width="1.5"></path><path d="M1436.61 44.42L1436.61 44.42" stroke="hsl(228.5, 77.2%, 51.5%)" stroke-width="1.5"></path><path d="M1457.28 248.64L1457.28 248.64" stroke="hsl(228.5, 77.2%, 51.5%)" stroke-width="1.5"></path><path d="M1457.28 248.64L1585.33 220.83" stroke="hsl(228.5, 77.2%, 51.5%)" stroke-width="1.5"></path><path d="M1457.28 248.64L1575 339.64" stroke="hsl(228.5, 77.2%, 51.5%)" stroke-width="1.5"></path><path d="M1438.86 546.62L1438.86 546.62" stroke="hsl(228.5, 77.2%, 51.5%)" stroke-width="1.5"></path><path d="M1438.86 546.62L1438.55 638.53" stroke="hsl(228.5, 77.2%, 51.5%)" stroke-width="1.5"></path><path d="M1438.86 546.62L1605.75 518.58" stroke="hsl(228.5, 77.2%, 51.5%)" stroke-width="1.5"></path><path d="M1438.86 546.62L1571.2 684.15" stroke="hsl(228.5, 77.2%, 51.5%)" stroke-width="1.5"></path><path d="M1438.86 546.62L1575 339.64" stroke="hsl(228.5, 77.2%, 51.5%)" stroke-width="1.5"></path><path d="M1438.55 638.53L1438.55 638.53" stroke="hsl(228.5, 77.2%, 51.5%)" stroke-width="1.5"></path><path d="M1438.55 638.53L1571.2 684.15" stroke="hsl(228.5, 77.2%, 51.5%)" stroke-width="1.5"></path><path d="M1569.92 -68.61L1569.92 -68.61" stroke="hsl(228.5, 77.2%, 51.5%)" stroke-width="1.5"></path><path d="M1569.92 -68.61L1436.61 44.42" stroke="hsl(228.5, 77.2%, 51.5%)" stroke-width="1.5"></path><path d="M1569.92 -68.61L1585.33 220.83" stroke="hsl(228.5, 77.2%, 51.5%)" stroke-width="1.5"></path><path d="M1569.92 -68.61L1243.94 -98.43" stroke="hsl(228.5, 77.2%, 51.5%)" stroke-width="1.5"></path><path d="M1569.92 -68.61L1457.28 248.64" stroke="hsl(228.5, 77.2%, 51.5%)" stroke-width="1.5"></path><path d="M1585.33 220.83L1585.33 220.83" stroke="hsl(228.5, 77.2%, 51.5%)" stroke-width="1.5"></path><path d="M1585.33 220.83L1575 339.64" stroke="hsl(228.5, 77.2%, 51.5%)" stroke-width="1.5"></path><path d="M1575 339.64L1575 339.64" stroke="hsl(228.5, 77.2%, 51.5%)" stroke-width="1.5"></path><path d="M1575 339.64L1605.75 518.58" stroke="hsl(228.5, 77.2%, 51.5%)" stroke-width="1.5"></path><path d="M1605.75 518.58L1605.75 518.58" stroke="hsl(228.5, 77.2%, 51.5%)" stroke-width="1.5"></path><path d="M1605.75 518.58L1571.2 684.15" stroke="hsl(228.5, 77.2%, 51.5%)" stroke-width="1.5"></path><path d="M1605.75 518.58L1438.55 638.53" stroke="hsl(228.5, 77.2%, 51.5%)" stroke-width="1.5"></path><path d="M1571.2 684.15L1571.2 684.15" stroke="hsl(228.5, 77.2%, 51.5%)" stroke-width="1.5"></path><path d="M1571.2 684.15L1293.58 702.52" stroke="hsl(228.5, 77.2%, 51.5%)" stroke-width="1.5"></path><path d="M1571.2 684.15L1575 339.64" stroke="hsl(228.5, 77.2%, 51.5%)" stroke-width="1.5"></path><circle r="25" cx="-63.63" cy="518.36" fill="url(&quot;#SvgjsRadialGradient1001&quot;)"></circle><circle r="25" cx="-41.72" cy="647.61" fill="url(&quot;#SvgjsRadialGradient1001&quot;)"></circle><circle r="25" cx="347.5" cy="531.11" fill="url(&quot;#SvgjsRadialGradient1001&quot;)"></circle><circle r="25" cx="559.3" cy="703.08" fill="url(&quot;#SvgjsRadialGradient1001&quot;)"></circle><circle r="25" cx="955.81" cy="399.12" fill="url(&quot;#SvgjsRadialGradient1001&quot;)"></circle><circle r="25" cx="1243.94" cy="-98.43" fill="url(&quot;#SvgjsRadialGradient1001&quot;)"></circle><circle r="25" cx="1247.6" cy="395.75" fill="url(&quot;#SvgjsRadialGradient1001&quot;)"></circle><circle r="5" cx="84.71" cy="490.64" fill="#8b9ad9"></circle><circle r="5" cx="65.76" cy="685.25" fill="#8b9ad9"></circle><circle r="5" cx="195.78" cy="527.51" fill="#8b9ad9"></circle><circle r="5" cx="249.23" cy="711.21" fill="#8b9ad9"></circle><circle r="5" cx="381.67" cy="672.15" fill="#8b9ad9"></circle><circle r="5" cx="546.79" cy="517.58" fill="#8b9ad9"></circle><circle r="5" cx="671.29" cy="512.33" fill="#8b9ad9"></circle><circle r="5" cx="647.51" cy="694.1" fill="#8b9ad9"></circle><circle r="5" cx="827.56" cy="400.41" fill="#8b9ad9"></circle><circle r="5" cx="849.54" cy="679.85" fill="#8b9ad9"></circle><circle r="5" cx="1008.03" cy="241.59" fill="#8b9ad9"></circle><circle r="5" cx="1001.34" cy="531.44" fill="#8b9ad9"></circle><circle r="5" cx="1004.08" cy="641.52" fill="#8b9ad9"></circle><circle r="5" cx="1160.87" cy="78.38" fill="#8b9ad9"></circle><circle r="5" cx="1147.8" cy="251.8" fill="#8b9ad9"></circle><circle r="5" cx="1151.66" cy="392.47" fill="#8b9ad9"></circle><circle r="5" cx="1144.16" cy="687.38" fill="#8b9ad9"></circle><circle r="5" cx="1283.81" cy="109.42" fill="#8b9ad9"></circle><circle r="5" cx="1299.06" cy="214.28" fill="#8b9ad9"></circle><circle r="5" cx="1293.58" cy="702.52" fill="#8b9ad9"></circle><circle r="5" cx="1420.6" cy="-71.45" fill="#8b9ad9"></circle><circle r="5" cx="1436.61" cy="44.42" fill="#8b9ad9"></circle><circle r="5" cx="1457.28" cy="248.64" fill="#8b9ad9"></circle><circle r="5" cx="1438.86" cy="546.62" fill="#8b9ad9"></circle><circle r="5" cx="1438.55" cy="638.53" fill="#8b9ad9"></circle><circle r="5" cx="1569.92" cy="-68.61" fill="#8b9ad9"></circle><circle r="5" cx="1585.33" cy="220.83" fill="#8b9ad9"></circle><circle r="5" cx="1575" cy="339.64" fill="#8b9ad9"></circle><circle r="5" cx="1605.75" cy="518.58" fill="#8b9ad9"></circle><circle r="5" cx="1571.2" cy="684.15" fill="#8b9ad9"></circle></g><defs><mask id="SvgjsMask1000"><rect width="1440" height="560" fill="#ffffff"></rect></mask><radialGradient id="SvgjsRadialGradient1001"><stop stop-color="#ffffff" offset="0.1"></stop><stop stop-color="#1735b3" offset="0.2"></stop><stop stop-color="rgba(23, 53, 179, 0)" offset="1"></stop></radialGradient></defs></svg>